<svg xmlns="http://www.w3.org/2000/svg" viewBox="0 0 24 24" fill="none" stroke="currentColor" stroke-width="1.8" stroke-linecap="round" stroke-linejoin="round"><path d="M12 2c-2 0-4 1-5 3L4 8c-1 2-1 4 0 6l1 2c0 2 1 3 3 4l4 2 4-2c2-1 3-2 3-4l1-2c1-2 1-4 0-6l-3-3c-1-2-3-3-5-3Z"/><path d="M8 10c0 2 1.5 3 4 3s4-1 4-3"/><path d="M9 7v1"/><path d="M15 7v1"/><circle cx="9" cy="7.5" r=".5" fill="currentColor"/><circle cx="15" cy="7.5" r=".5" fill="currentColor"/><path d="M12 13v4"/><path d="M9 17l3 2 3-2"/></svg>
